HIERARCHY
ROOT Hips
{
	OFFSET 0.000000 0.000000 0.000000
	CHANNELS 6 Xposition Yposition Zposition Zrotation Yrotation Xrotation 
	JOINT LHipJoint
	{
		OFFSET 0.000000 0.000000 0.000000
		CHANNELS 3 Zrotation Yrotation Xrotation
		JOINT LeftUpLeg
		{
			OFFSET 1.363060 -1.794630 0.839290
			CHANNELS 3 Zrotation Yrotation Xrotation
			JOINT LeftLeg
			{
				OFFSET 2.448110 -6.726130 0.000000
				CHANNELS 3 Zrotation Yrotation Xrotation
				JOINT LeftFoot
				{
					OFFSET 2.562200 -7.039590 0.000000
					CHANNELS 3 Zrotation Yrotation Xrotation
					JOINT LeftToeBase
					{
						OFFSET 0.157640 -0.433110 2.322550
						CHANNELS 3 Zrotation Yrotation Xrotation
						End Site
						{
							OFFSET 0.000000 0.000000 0.000000
						}
					}
				}
			}
		}
	}
	JOINT RHipJoint
	{
		OFFSET 0.000000 0.000000 0.000000
		CHANNELS 3 Zrotation Yrotation Xrotation
		JOINT RightUpLeg
		{
			OFFSET -1.305520 -1.794630 0.839290
			CHANNELS 3 Zrotation Yrotation Xrotation
			JOINT RightLeg
			{
				OFFSET -2.542530 -6.985550 0.000000
				CHANNELS 3 Zrotation Yrotation Xrotation
				JOINT RightFoot
				{
					OFFSET -2.568260 -7.056230 0.000000
					CHANNELS 3 Zrotation Yrotation Xrotation
					JOINT RightToeBase
					{
						OFFSET -0.164730 -0.452590 2.363150
						CHANNELS 3 Zrotation Yrotation Xrotation
						End Site
						{
							OFFSET 0.000000 0.000000 0.000000
						}
					}
				}
			}
		}
	}
	JOINT LowerBack
	{
		OFFSET 0.000000 0.000000 0.000000
		CHANNELS 3 Zrotation Yrotation Xrotation
		JOINT Spine
		{
			OFFSET 0.028270 2.035590 -0.193380
			CHANNELS 3 Zrotation Yrotation Xrotation
			JOINT Spine1
			{
				OFFSET 0.056720 2.048850 -0.042750
				CHANNELS 3 Zrotation Yrotation Xrotation
				JOINT Neck
				{
					OFFSET 0.000000 0.000000 0.000000
					CHANNELS 3 Zrotation Yrotation Xrotation
					JOINT Neck1
					{
						OFFSET -0.054170 1.746240 0.172020
						CHANNELS 3 Zrotation Yrotation Xrotation
						JOINT Head
						{
							OFFSET 0.104070 1.761360 -0.123970
							CHANNELS 3 Zrotation Yrotation Xrotation
							End Site
							{
								OFFSET 0.000000 0.000000 0.000000
							}
						}
					}
				}
				JOINT LeftShoulder
				{
					OFFSET 0.000000 0.000000 0.000000
					CHANNELS 3 Zrotation Yrotation Xrotation
					JOINT LeftArm
					{
						OFFSET 3.362410 1.200890 -0.311210
						CHANNELS 3 Zrotation Yrotation Xrotation
						JOINT LeftForeArm
						{
							OFFSET 4.983000 -0.000000 -0.000000
							CHANNELS 3 Zrotation Yrotation Xrotation
							JOINT LeftHand
							{
								OFFSET 3.483560 -0.000000 -0.000000
								CHANNELS 3 Zrotation Yrotation Xrotation
								JOINT LeftFingerBase
								{
									OFFSET 0.000000 0.000000 0.000000
									CHANNELS 3 Zrotation Yrotation Xrotation
									JOINT LeftHandIndex1
									{
										OFFSET 0.715260 -0.000000 -0.000000
										CHANNELS 3 Zrotation Yrotation Xrotation
										End Site
										{
											OFFSET 0.000000 0.000000 0.000000
										}
									}
								}
								JOINT LThumb
								{
									OFFSET 0.000000 0.000000 0.000000
									CHANNELS 3 Zrotation Yrotation Xrotation
									End Site
									{
										OFFSET 0.000000 0.000000 0.000000
									}
								}
							}
						}
					}
				}
				JOINT RightShoulder
				{
					OFFSET 0.000000 0.000000 0.000000
					CHANNELS 3 Zrotation Yrotation Xrotation
					JOINT RightArm
					{
						OFFSET -3.136600 1.374050 -0.404650
						CHANNELS 3 Zrotation Yrotation Xrotation
						JOINT RightForeArm
						{
							OFFSET -5.241900 -0.000000 -0.000000
							CHANNELS 3 Zrotation Yrotation Xrotation
							JOINT RightHand
							{
								OFFSET -3.444170 -0.000000 -0.000000
								CHANNELS 3 Zrotation Yrotation Xrotation
								JOINT RightFingerBase
								{
									OFFSET 0.000000 0.000000 0.000000
									CHANNELS 3 Zrotation Yrotation Xrotation
									JOINT RightHandIndex1
									{
										OFFSET -0.622530 -0.000000 -0.000000
										CHANNELS 3 Zrotation Yrotation Xrotation
										End Site
										{
											OFFSET 0.000000 0.000000 0.000000
										}
									}
								}
								JOINT RThumb
								{
									OFFSET 0.000000 0.000000 0.000000
									CHANNELS 3 Zrotation Yrotation Xrotation
									End Site
									{
										OFFSET 0.000000 0.000000 0.000000
									}
								}
							}
						}
					}
				}
			}
		}
	}
}
MOTION
Frames: 10
Frame Time: 0.008333
-19.068560 16.940756 -0.657032 78.785066 85.738862 98.426508 -6.843147 1.738464 7.617098 -14.936931 -15.762290 -41.436256 -3.354128 -0.662298 18.165045 1.036777 2.448604 -10.440912 -0.077900 0.000000 -11.890500 12.506842 -4.796716 0.596312 0.507486 -12.866562 -0.252406 -0.034288 -1.563450 21.870157 -0.750737 8.463872 34.485015 5.916000 0.000001 -75.040800 -7.019869 3.048285 -9.461211 -2.905377 3.433071 -4.797474 -7.093668 3.452804 1.116316 11.700993 -6.743370 -9.605014 -3.322204 -0.245791 -0.554767 0.000000 0.000000 0.000000 0.848608 24.222632 1.578587 -52.134262 18.826892 1.674512 -1.448427 -67.336621 0.005979 6.462492 -0.479986 -0.025555 -0.181650 -0.014099 -0.000000 0.000000 0.000000 0.000000 0.000000 0.000000 0.000000 16.769084 3.590893 0.023498 72.151439 21.198243 40.387866 0.798481 79.544223 0.033023 3.663144 6.040041 0.210853 -0.006943 -0.473592 -0.000000 0.000000 0.000000 0.000000 0.000000 0.000000 0.000000 
-18.861733 16.941911 -0.657521 81.242114 85.424408 100.436138 -6.823532 1.909428 7.465064 -15.909669 -15.229730 -40.440553 -3.398605 -0.537127 18.825141 0.987800 2.325507 -10.174460 -0.058900 0.000001 -12.021900 12.675484 -4.633619 0.436501 -0.219584 -13.925630 -0.976760 -0.209161 -1.604800 24.405407 -0.968572 7.248364 35.334138 5.293901 0.000000 -71.374099 -7.318989 2.941134 -9.196464 -2.967401 3.357772 -4.755418 -7.149271 3.379382 1.063827 11.818175 -6.882243 -9.601993 -3.345421 -0.247235 -0.556234 0.000000 0.000000 0.000000 0.886389 24.106770 1.544819 -51.975608 18.464888 2.156799 -1.429540 -67.601712 0.005813 6.476839 -0.505526 -0.027245 -0.181304 -0.011733 -0.000000 0.000000 0.000000 0.000000 0.000000 0.000000 0.000000 17.031687 3.418353 -0.008995 72.508654 20.614999 40.023575 0.817593 79.152305 0.034176 3.910157 5.986222 0.223312 -0.012680 -0.470635 -0.000000 0.000000 0.000000 0.000000 0.000000 0.000000 0.000000 
-18.657326 16.942518 -0.659247 83.686565 85.109264 102.423063 -6.814633 2.072852 7.304796 -16.837150 -14.663256 -39.386178 -3.443203 -0.422552 19.428656 0.937051 2.154869 -9.997100 -0.050601 0.000000 -12.083300 12.816287 -4.452013 0.260418 -0.906375 -14.962467 -1.729106 -0.359288 -1.649918 27.013816 -1.177518 5.563052 35.589420 4.280000 0.000001 -67.431600 -7.587328 2.825885 -8.901092 -3.019283 3.270252 -4.705305 -7.196748 3.293657 1.011738 11.917697 -7.044238 -9.604379 -3.366034 -0.248309 -0.559145 0.000000 0.000000 0.000000 0.888797 23.967439 1.508131 -51.873937 18.026448 2.663789 -1.410744 -67.849361 0.005622 6.523648 -0.535605 -0.029331 -0.181097 -0.008907 -0.000000 0.000000 0.000000 0.000000 0.000000 0.000000 0.000000 17.264212 3.207851 -0.045277 72.840953 20.011754 39.600006 0.833660 78.780344 0.034962 4.103409 5.933572 0.232374 -0.017501 -0.467407 -0.000000 0.000000 0.000000 0.000000 0.000000 0.000000 0.000000 
-18.455069 16.942970 -0.662877 86.013773 84.811925 104.301954 -6.822024 2.223936 7.142938 -17.680286 -14.073034 -38.299155 -3.484837 -0.321116 19.972725 0.885190 1.936556 -9.916350 -0.052500 0.000000 -12.052700 12.923116 -4.263917 0.081069 -1.517342 -15.918081 -2.527154 -0.485170 -1.707476 29.672039 -1.370970 3.520768 35.202306 2.976800 0.000001 -63.459900 -7.803781 2.706549 -8.598432 -3.057206 3.172671 -4.650957 -7.236619 3.197745 0.962660 11.998254 -7.231484 -9.612130 -3.383666 -0.249053 -0.563068 0.000000 0.000000 0.000000 0.850503 23.810712 1.465773 -51.835355 17.516762 3.191760 -1.391967 -68.076645 0.005394 6.602374 -0.566188 -0.031714 -0.181071 -0.005682 -0.000000 0.000000 0.000000 0.000000 0.000000 0.000000 0.000000 17.463063 2.957465 -0.086592 73.145805 19.384323 39.122820 0.847129 78.428608 0.035307 4.226643 5.894492 0.237944 -0.021059 -0.464104 -0.000000 0.000000 0.000000 0.000000 0.000000 0.000000 0.000000 
-18.255253 16.943777 -0.667478 88.045091 84.512398 105.896194 -6.832192 2.361640 6.983258 -18.448789 -13.503195 -37.139806 -3.525764 -0.240480 20.389685 0.838920 1.718655 -9.908456 -0.061000 0.000000 -11.941700 13.008639 -4.068325 -0.100519 -2.085810 -16.755803 -3.375235 -0.592327 -1.785193 32.378743 -1.543609 1.299935 34.147677 1.549200 -0.000000 -59.576200 -7.993657 2.583037 -8.288500 -3.086942 3.067527 -4.594434 -7.271809 3.093994 0.910042 12.064013 -7.431312 -9.618583 -3.400181 -0.249707 -0.566442 0.000000 0.000000 0.000000 0.765189 23.626195 1.418608 -51.839705 16.958615 3.737104 -1.371986 -68.306546 0.005144 6.720490 -0.598694 -0.034492 -0.181257 -0.002178 -0.000000 0.000000 0.000000 0.000000 0.000000 0.000000 0.000000 17.637284 2.683726 -0.131991 73.436761 18.718142 38.568680 0.858630 78.094727 0.035320 4.296764 5.870299 0.240921 -0.023745 -0.460910 -0.000000 0.000000 0.000000 0.000000 0.000000 0.000000 0.000000 
-18.056828 16.945371 -0.674334 89.752444 84.249244 107.204308 -6.857695 2.482934 6.830800 -19.105244 -12.931490 -35.972547 -3.563474 -0.179015 20.708541 0.793609 1.471276 -9.978118 -0.075000 -0.000000 -11.763400 13.063205 -3.882836 -0.263058 -2.547397 -17.419272 -4.307236 -0.681081 -1.885652 35.096737 -1.688924 -0.920119 32.464056 0.165100 -0.000000 -55.954599 -8.117244 2.460018 -8.006190 -3.100964 2.956195 -4.540676 -7.301835 2.983798 0.861465 12.112759 -7.650012 -9.626384 -3.414934 -0.250283 -0.569325 0.000000 0.000000 0.000000 0.631118 23.428965 1.362850 -51.906360 16.352787 4.293783 -1.351644 -68.520615 0.004854 6.868802 -0.628967 -0.037265 -0.181646 0.001558 -0.000000 0.000000 0.000000 0.000000 0.000000 0.000000 0.000000 17.783625 2.379099 -0.182559 73.699593 18.019694 37.963622 0.868679 77.776039 0.034877 4.288363 5.874212 0.240508 -0.024970 -0.457900 -0.000000 0.000000 0.000000 0.000000 0.000000 0.000000 0.000000 
-17.859907 16.948237 -0.683043 91.031520 84.020068 108.127327 -6.892299 2.588494 6.686629 -19.660908 -12.368715 -34.790831 -3.600046 -0.139750 20.896535 0.751039 1.213791 -10.101316 -0.091400 0.000000 -11.556300 13.095240 -3.709939 -0.399769 -2.912141 -17.882619 -5.335850 -0.755497 -2.009475 37.809133 -1.802392 -2.965046 30.213134 -1.022000 -0.000000 -52.608601 -8.183227 2.338053 -7.758583 -3.101564 2.840401 -4.491672 -7.328045 2.868827 0.816285 12.147577 -7.881897 -9.633163 -3.429112 -0.250928 -0.571145 0.000000 0.000000 0.000000 0.448103 23.219972 1.298609 -52.032542 15.710346 4.856928 -1.330866 -68.722741 0.004529 7.045337 -0.658064 -0.040334 -0.182211 0.005471 -0.000000 0.000000 0.000000 0.000000 0.000000 0.000000 0.000000 17.910340 2.051374 -0.237224 73.936704 17.289943 37.307899 0.877912 77.467423 0.034030 4.208516 5.906809 0.237205 -0.024854 -0.455102 -0.000000 0.000000 0.000000 0.000000 0.000000 0.000000 0.000000 
-17.664156 16.952829 -0.693621 91.821624 83.833680 108.612273 -6.936262 2.678964 6.550261 -20.120095 -11.804990 -33.610837 -3.636304 -0.122729 20.947768 0.710120 0.946422 -10.259356 -0.107700 -0.000000 -11.360800 13.107886 -3.554357 -0.500941 -3.171608 -18.124462 -6.475265 -0.817854 -2.153728 40.488987 -1.880797 -4.710595 27.491087 -1.914500 -0.000000 -49.518399 -8.186110 2.218067 -7.556602 -3.087982 2.720851 -4.450375 -7.350968 2.749652 0.772467 12.167459 -8.117269 -9.634760 -3.443686 -0.251807 -0.570644 0.000000 0.000000 0.000000 0.213039 22.994429 1.226275 -52.217801 15.056565 5.418189 -1.309374 -68.919970 0.004172 7.243756 -0.686672 -0.043599 -0.182892 0.009474 -0.000000 0.000000 0.000000 0.000000 0.000000 0.000000 0.000000 18.018449 1.712027 -0.295349 74.147601 16.523643 36.602656 0.886564 77.166012 0.032832 4.065923 5.965086 0.231211 -0.023597 -0.452418 -0.000000 0.000000 0.000000 0.000000 0.000000 0.000000 0.000000 
-17.469533 16.959498 -0.705851 92.068975 83.690886 108.605135 -6.987033 2.755846 6.419366 -20.496645 -11.233562 -32.433311 -3.673275 -0.127889 20.851367 0.670869 0.677660 -10.430254 -0.122100 -0.000000 -11.217800 13.106776 -3.416131 -0.561899 -3.335725 -18.140526 -7.725367 -0.869800 -2.313308 43.106267 -1.922636 -6.080261 24.415176 -2.471800 0.000000 -46.634800 -8.130770 2.100238 -7.401967 -3.061303 2.598315 -4.416188 -7.370081 2.627116 0.735158 12.175533 -8.359631 -9.634667 -3.458671 -0.252874 -0.568901 0.000000 0.000000 0.000000 -0.064376 22.767067 1.146238 -52.473486 14.379469 5.978146 -1.288348 -69.097261 0.003777 7.455410 -0.717113 -0.047161 -0.183637 0.013645 -0.000000 0.000000 0.000000 0.000000 0.000000 0.000000 0.000000 18.115316 1.357803 -0.355772 74.327564 15.740805 35.868753 0.895135 76.864983 0.031301 3.861948 6.044993 0.222225 -0.021136 -0.449696 -0.000000 0.000000 0.000000 0.000000 0.000000 0.000000 0.000000 
-17.276042 16.968538 -0.719674 91.751275 83.596592 108.082823 -7.047036 2.820103 6.290243 -20.797275 -10.635603 -31.268814 -3.710610 -0.153442 20.613538 0.631939 0.406025 -10.596844 -0.133200 0.000000 -11.158100 13.092888 -3.295888 -0.578220 -3.404258 -17.932267 -9.082729 -0.911619 -2.481543 45.627613 -1.928795 -7.054028 21.115538 -2.712400 -0.000000 -43.908500 -8.012282 1.984436 -7.295785 -3.020435 2.472209 -4.390381 -7.384918 2.500474 0.700830 12.168747 -8.598072 -9.628700 -3.474740 -0.254245 -0.564742 0.000000 0.000000 0.000000 -0.384155 22.527762 1.060522 -52.800991 13.706960 6.527585 -1.267462 -69.264481 0.003349 7.670401 -0.751507 -0.051120 -0.184347 0.017964 -0.000000 0.000000 0.000000 0.000000 0.000000 0.000000 0.000000 18.197834 1.001109 -0.417467 74.476692 14.937693 35.107755 0.903405 76.563352 0.029519 3.612327 6.136656 0.210743 -0.017835 -0.446716 0.000000 0.000000 0.000000 0.000000 0.000000 0.000000 0.000000 
